<svg id="visual" viewBox="0 0 900 300" width="900" height="300" xmlns="http://www.w3.org/2000/svg" xmlns:xlink="http://www.w3.org/1999/xlink" version="1.1"><path d="M0 228L21.5 230.5C43 233 86 238 128.8 239C171.7 240 214.3 237 257.2 231.8C300 226.7 343 219.3 385.8 219.8C428.7 220.3 471.3 228.7 514.2 233.7C557 238.7 600 240.3 642.8 237.2C685.7 234 728.3 226 771.2 226C814 226 857 234 878.5 238L900 242L900 301L878.5 301C857 301 814 301 771.2 301C728.3 301 685.7 301 642.8 301C600 301 557 301 514.2 301C471.3 301 428.7 301 385.8 301C343 301 300 301 257.2 301C214.3 301 171.7 301 128.8 301C86 301 43 301 21.5 301L0 301Z" fill="#E5E7AE" stroke-linecap="round" stroke-linejoin="miter"></path></svg>