<svg id="visual" viewBox="0 0 675 900" width="675" height="900" xmlns="http://www.w3.org/2000/svg" xmlns:xlink="http://www.w3.org/1999/xlink" version="1.1"><path d="M0 712L18.8 715.5C37.7 719 75.3 726 112.8 713C150.3 700 187.7 667 225.2 666.7C262.7 666.3 300.3 698.7 337.8 707.3C375.3 716 412.7 701 450.2 686.8C487.7 672.7 525.3 659.3 562.8 649.8C600.3 640.3 637.7 634.7 656.3 631.8L675 629L675 901L656.3 901C637.7 901 600.3 901 562.8 901C525.3 901 487.7 901 450.2 901C412.7 901 375.3 901 337.8 901C300.3 901 262.7 901 225.2 901C187.7 901 150.3 901 112.8 901C75.3 901 37.7 901 18.8 901L0 901Z" fill="#8BAD34" stroke-linecap="round" stroke-linejoin="miter"></path></svg>