<svg id="visual" viewBox="0 0 900 300" width="900" height="300" xmlns="http://www.w3.org/2000/svg" xmlns:xlink="http://www.w3.org/1999/xlink" version="1.1"><rect x="0" y="0" width="900" height="300" fill="#E5E7AE"></rect><path d="M0 173L25 172C50 171 100 169 150 169.3C200 169.7 250 172.3 300 173.7C350 175 400 175 450 173.2C500 171.3 550 167.7 600 165.7C650 163.7 700 163.3 750 163.2C800 163 850 163 875 163L900 163L900 301L875 301C850 301 800 301 750 301C700 301 650 301 600 301C550 301 500 301 450 301C400 301 350 301 300 301C250 301 200 301 150 301C100 301 50 301 25 301L0 301Z" fill="#4bc7ce"></path><path d="M0 212L25 210.5C50 209 100 206 150 204.7C200 203.3 250 203.7 300 205.8C350 208 400 212 450 211C500 210 550 204 600 204C650 204 700 210 750 210.3C800 210.7 850 205.3 875 202.7L900 200L900 301L875 301C850 301 800 301 750 301C700 301 650 301 600 301C550 301 500 301 450 301C400 301 350 301 300 301C250 301 200 301 150 301C100 301 50 301 25 301L0 301Z" fill="#0d98b6"></path><path d="M0 254L25 254.8C50 255.7 100 257.3 150 257.2C200 257 250 255 300 253.3C350 251.7 400 250.3 450 251.8C500 253.3 550 257.7 600 257.2C650 256.7 700 251.3 750 251.3C800 251.3 850 256.7 875 259.3L900 262L900 301L875 301C850 301 800 301 750 301C700 301 650 301 600 301C550 301 500 301 450 301C400 301 350 301 300 301C250 301 200 301 150 301C100 301 50 301 25 301L0 301Z" fill="#006995"></path></svg>