<svg id="visual" viewBox="0 0 900 300" width="900" height="300" xmlns="http://www.w3.org/2000/svg" xmlns:xlink="http://www.w3.org/1999/xlink" version="1.1"><rect x="0" y="0" width="900" height="300" fill="#E5E7AE"></rect><path d="M0 70L21.5 73.5C43 77 86 84 128.8 81.5C171.7 79 214.3 67 257.2 66.5C300 66 343 77 385.8 79.2C428.7 81.3 471.3 74.7 514.2 68.8C557 63 600 58 642.8 60.8C685.7 63.7 728.3 74.3 771.2 78.8C814 83.3 857 81.7 878.5 80.8L900 80L900 0L878.5 0C857 0 814 0 771.2 0C728.3 0 685.7 0 642.8 0C600 0 557 0 514.2 0C471.3 0 428.7 0 385.8 0C343 0 300 0 257.2 0C214.3 0 171.7 0 128.8 0C86 0 43 0 21.5 0L0 0Z" fill="#8BAD34" stroke-linecap="round" stroke-linejoin="miter"></path></svg>