<svg id="visual" viewBox="0 0 900 300" width="900" height="300" xmlns="http://www.w3.org/2000/svg" xmlns:xlink="http://www.w3.org/1999/xlink" version="1.1"><rect x="0" y="0" width="900" height="300" fill="#8BAD34"></rect><path d="M0 53L21.5 55.7C43 58.3 86 63.7 128.8 70.3C171.7 77 214.3 85 257.2 83C300 81 343 69 385.8 62.7C428.7 56.3 471.3 55.7 514.2 57.3C557 59 600 63 642.8 67.5C685.7 72 728.3 77 771.2 76.5C814 76 857 70 878.5 67L900 64L900 0L878.5 0C857 0 814 0 771.2 0C728.3 0 685.7 0 642.8 0C600 0 557 0 514.2 0C471.3 0 428.7 0 385.8 0C343 0 300 0 257.2 0C214.3 0 171.7 0 128.8 0C86 0 43 0 21.5 0L0 0Z" fill="#967927" stroke-linecap="round" stroke-linejoin="miter"></path></svg>